<svg id="visual" viewBox="0 0 900 600" width="900" height="600" xmlns="http://www.w3.org/2000/svg" xmlns:xlink="http://www.w3.org/1999/xlink" version="1.1"><rect x="0" y="0" width="900" height="600" fill="#808080"></rect><defs><linearGradient id="grad1_0" x1="33.3%" y1="0%" x2="100%" y2="100%"><stop offset="20%" stop-color="#808080" stop-opacity="1"></stop><stop offset="80%" stop-color="#808080" stop-opacity="1"></stop></linearGradient></defs><defs><linearGradient id="grad2_0" x1="0%" y1="0%" x2="66.7%" y2="100%"><stop offset="20%" stop-color="#808080" stop-opacity="1"></stop><stop offset="80%" stop-color="#808080" stop-opacity="1"></stop></linearGradient></defs><g transform="translate(900, 0)"><path d="M0 486.7C-54.4 450.4 -108.8 414.1 -160.3 387.1C-211.9 360.1 -260.5 342.5 -312.5 312.5C-364.6 282.6 -420.1 240.4 -449.7 186.3C-479.3 132.1 -483 66.1 -486.7 0L0 0Z" fill="#080808"></path></g><g transform="translate(0, 600)"><path d="M0 -486.7C70.4 -487 140.8 -487.2 186.3 -449.7C231.7 -412.2 252.3 -337.1 287.1 -287.1C321.9 -237 370.9 -212.1 406.5 -168.4C442.2 -124.7 464.5 -62.4 486.7 0L0 0Z" fill="#080808"></path></g></svg>